<svg width="35" height="35" viewBox="0 0 35 35" fill="none" xmlns="http://www.w3.org/2000/svg">
<path d="M31.7998 14.6439H30.6251V14.5834H17.5001V20.4167H25.7419C24.5395 23.8125 21.3085 26.2501 17.5001 26.2501C12.6679 26.2501 8.75008 22.3323 8.75008 17.5001C8.75008 12.6679 12.6679 8.75008 17.5001 8.75008C19.7306 8.75008 21.7599 9.59154 23.305 10.966L27.4299 6.84112C24.8253 4.41373 21.3413 2.91675 17.5001 2.91675C9.44643 2.91675 2.91675 9.44643 2.91675 17.5001C2.91675 25.5537 9.44643 32.0834 17.5001 32.0834C25.5537 32.0834 32.0834 25.5537 32.0834 17.5001C32.0834 16.5223 31.9828 15.5678 31.7998 14.6439Z" fill="#FFC107"/>
<path d="M4.59814 10.7123L9.3895 14.2261C10.686 11.0163 13.8257 8.75008 17.5 8.75008C19.7305 8.75008 21.7598 9.59154 23.3049 10.966L27.4298 6.84112C24.8252 4.41373 21.3413 2.91675 17.5 2.91675C11.8986 2.91675 7.04085 6.07914 4.59814 10.7123Z" fill="#FF3D00"/>
<path d="M17.4999 32.0833C21.2668 32.0833 24.6895 30.6418 27.2773 28.2975L22.7638 24.4781C21.2504 25.629 19.4012 26.2515 17.4999 26.25C13.7068 26.25 10.486 23.8314 9.27271 20.4561L4.51709 24.1201C6.93063 28.8429 11.8321 32.0833 17.4999 32.0833Z" fill="#4CAF50"/>
<path d="M31.7997 14.6438H30.625V14.5833H17.5V20.4166H25.7418C25.1666 22.0327 24.1306 23.4449 22.7617 24.4788L22.7639 24.4773L27.2774 28.2967C26.958 28.5869 32.0833 24.7916 32.0833 17.4999C32.0833 16.5221 31.9827 15.5676 31.7997 14.6438Z" fill="#1976D2"/>
</svg>
